{"title":"Max Manus (2008) DVDrip (Norwegian + opt.SUBS DK,FI,NO,SE)","uid":4930950,"size":750851359,"categoryP":"video","categoryS":"movies","magnet":"?xt=urn:btih:8be0b736b326d529e1d29d285edce1edde7a82ea&amp;dn=Max+Manus+%282008%29+DVDrip+%28Norwegian+%2B+opt.SUBS+DK%2CFI%2CNO%2CSE%29&amp;tr=udp%3A%2F%2Ftracker.openbittorrent.com%3A80&amp;tr=udp%3A%2F%2Fopen.demonii.com%3A1337&amp;tr=udp%3A%2F%2Ftracker.coppersurfer.tk%3A6969&amp;tr=udp%3A%2F%2Fexodus.desync.com%3A6969","seeders":1,"leechers":0,"uploader":"Kuthumi","files":-1,"time":1244041624,"description":"Max Manus (2008) DVDrip (Norwegian + opt.SUBS DK,FI,NO,SE)\naka\nMax Manus (2009)\nMan of War (2008)\n &lt;a href=&quot;\nhttp://www.imdb.com/title/tt1029235/&quot; rel=&quot;nofollow&quot; target=&quot;_NEW&quot;&gt;\nhttp://www.imdb.com/title/tt1029235/&lt;/a&gt;\n\nOptional subtitles in separate idx/sub files (Work in Windows Media Player etc., see enclosed Note): Danish, Finnish, Norwegian, Swedish. \n'Norsk (full film)' renders subtitles all through the film, 'Norsk (utenlandsk dialog)' only when other languages are spoken, mainly English and German. Hence, no subtitles are hardcoded into the picture.\n\nTo clarify: There are no dubbed soundtracks. This is a Norwegian film with most of the dialogue in Norwegian, and some in English and German.\n\nTrue story about one of the most brilliant saboteurs during World War II and his battle to overcome his inner demons. In my opinion, the best Norwegian film made during the last decades.\n\nThe rental DVD is finally out, alas only with the subtitles I have included here. Subs in English and other languages are promised for a later edition.\n\nWidescreen DVDrip XviD 2-pass 704x288, great stereo sound AC3.\nRuns well in both my standalone DivX players.\n\nMy new ripping procedure now produces decent quality for such a long film \ncompressed into just 700 MiB. I enclose a sample for ye weak in faith. \n\nMediaInfo analysis:\nFilename: Max Manus (2008) DVDrip (Norwegian + opt.SUBS DK,FI,NO,SE)_Kuth.avi\n\nFormat/Info                      : Audio Video Interleave\nFile size                        : 696 MiB\nDuration                         : 1h 52mn\nOveral bit rate                  : 862 Kbps\n\nVideo\nFormat                           : MPEG-4 Visual\nFormat profile                   : Streaming Video@L1\nFormat settings, BVOP            : Yes\nFormat settings, QPel            : No\nFormat settings, GMC             : No warppoints\nFormat settings, Matrix          : Default\nMuxing mode                      : Packet Bitstream\nCodec ID                         : XVID\nCodec ID/Hint                    : XviD\nDuration                         : 1h 52mn\nBit rate                         : 724 Kbps\nWidth                            : 704 pixels\nHeight                           : 288 pixels\nDisplay aspect ratio             : 2.444\nFrame rate                       : 25.000 fps\nResolution                       : 8 bits\nColorimetry                      : 4:2:0\nScan type                        : Progressive\nBits/(Pixel*Frame)               : 0.143\nStream size                      : 585 MiB\nWriting library                  : XviD 1.2.0.dev47 (UTC 2006-11-01)\n\nAudio\nFormat                           : MPEG Audio\nFormat version                   : Version 1\nFormat profile                   : Layer 3\nCodec ID                         : 55\nCodec ID/Hint                    : MP3\nDuration                         : 1h 52mn\nBit rate mode                    : Constant\nBit rate                         : 128 Kbps\nMinimum bit rate                 : 128 Kbps\nChannel(s)                       : 2 channels\nSampling rate                    : 48.0 KHz\nResolution                       : 16 bits\nStream size                      : 103 MiB\nWriting library                  : LAME3.97 \nEncoding settings                : CBR\n\nSource: PAL rental 7.36 Giga (note that PAL/NTSC will give no problems for avi files).\n\nNOTE: As always, I will prioritize initial seeding to those peers who assign the highest UPLOAD speed to this new torrent. It is your only way to contribute to a high swarm speed for the common good.","torrent":{"xt":"urn:btih:8be0b736b326d529e1d29d285edce1edde7a82ea","amp;dn":"Max+Manus+%282008%29+DVDrip+%28Norwegian+%2B+opt.SUBS+DK%2CFI%2CNO%2CSE%29","amp;tr":["udp%3A%2F%2Ftracker.openbittorrent.com%3A80","udp%3A%2F%2Fopen.demonii.com%3A1337","udp%3A%2F%2Ftracker.coppersurfer.tk%3A6969","udp%3A%2F%2Fexodus.desync.com%3A6969"],"infoHash":"8be0b736b326d529e1d29d285edce1edde7a82ea","infoHashBuffer":{"type":"Buffer","data":[139,224,183,54,179,38,213,41,225,210,157,40,94,220,225,237,222,122,130,234]},"announce":[],"urlList":[]}}